<?xml version="1.0" standalone="no"?>
<!DOCTYPE svg PUBLIC "-//W3C//DTD SVG 20010904//EN"
 "http://www.w3.org/TR/2001/REC-SVG-20010904/DTD/svg10.dtd">
<svg version="1.0" xmlns="http://www.w3.org/2000/svg"
 width="2100.000000pt" height="1500.000000pt" viewBox="0 0 2100.000000 1500.000000"
 preserveAspectRatio="xMidYMid meet">

<g transform="translate(0.000000,1500.000000) scale(0.100000,-0.100000)"
fill="#000000" stroke="none">
<path d="M6770 12405 l0 -455 453 0 452 0 0 455 0 455 -452 0 -453 0 0 -455z"/>
<path d="M15127 12550 c-85 -22 -160 -79 -192 -147 -18 -37 -37 -141 -35 -188
4 -77 6 -75 -65 -75 l-65 0 0 -72 0 -73 65 3 65 4 0 -341 0 -341 95 0 95 0 2
338 3 337 147 3 146 3 4 -263 c3 -223 7 -269 21 -303 39 -88 102 -124 217
-125 41 0 92 5 113 11 l37 10 0 76 c0 68 -2 74 -17 67 -31 -14 -110 -16 -133
-4 -43 23 -50 63 -50 305 l0 225 100 0 100 0 0 70 0 70 -100 0 -100 0 0 125
c0 69 -1 125 -2 125 -2 0 -43 -13 -93 -28 l-90 -28 -3 -97 -3 -97 -149 0 -150
0 0 78 c1 100 22 151 75 176 36 17 84 17 129 0 14 -5 16 5 16 69 0 42 -4 78
-8 81 -18 11 -139 15 -175 6z"/>
<path d="M10754 12486 c-68 -30 -86 -111 -36 -166 34 -39 86 -49 134 -26 84
40 80 155 -7 192 -42 17 -51 17 -91 0z"/>
<path d="M9270 11895 l0 -575 91 0 91 0 -3 474 c-2 261 -1 472 3 470 3 -2 9
-21 13 -42 3 -20 86 -230 183 -467 l177 -430 61 -3 c59 -3 62 -2 72 25 7 15
86 212 177 438 91 225 168 427 172 447 3 21 8 38 12 38 3 0 5 -214 3 -475 l-4
-475 96 0 96 0 0 575 0 575 -133 0 -133 0 -151 -372 c-83 -205 -161 -401 -173
-435 -13 -35 -26 -63 -29 -63 -4 0 -14 22 -23 49 -8 27 -84 223 -168 435
l-153 386 -139 0 -138 0 0 -575z"/>
<path d="M11316 12140 c-72 -26 -99 -42 -154 -94 -156 -146 -169 -456 -26
-615 29 -32 70 -62 112 -83 60 -30 76 -33 174 -37 88 -3 120 1 178 18 l70 22
0 84 0 85 -52 -27 c-47 -24 -64 -28 -145 -28 -86 0 -94 2 -134 30 -24 17 -57
53 -74 80 -28 46 -30 54 -30 154 0 97 2 110 27 152 34 57 85 103 133 119 59
19 163 9 223 -22 l52 -27 0 89 0 89 -37 12 c-21 6 -87 13 -148 15 -92 4 -119
1 -169 -16z"/>
<path d="M12156 12145 c-48 -17 -102 -69 -118 -112 -19 -52 -28 -39 -28 37 l0
70 -90 0 -90 0 0 -410 0 -410 89 0 89 0 4 253 3 252 28 58 c20 39 42 66 68 84
35 23 46 25 99 20 34 -3 67 -11 75 -17 13 -11 15 0 15 83 0 90 -1 95 -22 101
-36 9 -80 6 -122 -9z"/>
<path d="M12617 12150 c-195 -49 -312 -234 -294 -464 12 -144 61 -241 158
-307 71 -49 144 -69 256 -69 114 0 194 24 266 78 95 72 145 175 154 317 13
198 -60 346 -204 417 -61 30 -74 32 -182 35 -64 1 -133 -2 -154 -7z m216 -154
c109 -46 163 -208 123 -365 -30 -118 -95 -171 -208 -171 -76 0 -132 24 -172
71 -48 56 -60 95 -60 199 -1 102 19 167 67 219 51 55 175 79 250 47z"/>
<path d="M13426 12136 c-108 -46 -158 -116 -158 -222 1 -78 27 -142 73 -177
19 -14 74 -44 122 -66 119 -55 145 -74 153 -116 19 -105 -134 -139 -285 -63
l-67 33 2 -89 1 -90 39 -14 c62 -23 240 -28 307 -8 120 35 187 119 187 234 0
116 -42 166 -201 241 -112 52 -149 85 -149 131 0 34 41 76 82 85 46 10 132 -4
183 -29 l45 -23 0 84 c0 82 -1 84 -27 95 -16 6 -77 13 -138 15 -100 3 -115 1
-169 -21z"/>
<path d="M14197 12150 c-99 -25 -196 -97 -240 -178 -69 -127 -76 -335 -14
-457 74 -147 197 -210 396 -203 94 3 114 7 173 35 36 17 85 50 108 73 90 90
134 249 112 401 -22 151 -85 245 -201 301 -61 29 -75 32 -181 34 -63 2 -132
-1 -153 -6z m250 -176 c57 -46 80 -86 94 -165 26 -144 -20 -281 -111 -326 -52
-27 -151 -31 -203 -10 -78 33 -137 141 -137 253 0 124 43 214 125 262 34 19
52 22 117 20 68 -3 80 -6 115 -34z"/>
<path d="M10710 11730 l0 -410 90 0 90 0 0 410 0 410 -90 0 -90 0 0 -410z"/>
<path d="M17030 9774 c-151 -83 -235 -212 -279 -429 -7 -33 -11 -1010 -13
-2931 l-2 -2881 27 -45 c42 -72 79 -98 141 -98 61 0 84 14 128 78 l33 47 5
2855 5 2855 21 45 c26 56 46 73 86 73 24 0 39 -8 60 -34 26 -30 260 -494 588
-1164 59 -121 229 -465 378 -765 301 -608 537 -1088 772 -1565 87 -176 252
-511 367 -745 116 -234 252 -510 303 -615 245 -502 252 -515 296 -515 12 0 33
13 48 30 l25 31 0 2142 c1 1178 4 2336 7 2573 5 327 4 433 -5 438 -17 11 -111
-54 -163 -113 -55 -61 -108 -160 -150 -282 l-33 -94 -3 -1665 c-1 -916 -4
-1671 -7 -1678 -7 -18 -43 3 -54 31 -5 12 -138 283 -296 602 -606 1224 -933
1887 -1196 2425 -93 190 -175 354 -181 365 -49 85 -351 710 -364 755 -19 62
-119 197 -176 238 -67 47 -142 75 -218 79 -61 3 -70 1 -150 -43z"/>
<path d="M2163 9765 c-17 -7 -34 -22 -37 -33 -4 -11 -13 -23 -21 -26 -8 -3
-24 -26 -35 -51 l-21 -47 1 -2291 c0 -1261 3 -2328 6 -2372 3 -44 9 -98 14
-120 53 -238 109 -384 198 -519 57 -86 184 -223 252 -271 49 -34 160 -95 175
-95 6 0 24 -7 40 -16 58 -30 227 -35 1267 -32 806 2 1040 6 1049 15 19 19 8
24 -66 33 -36 4 -71 13 -78 18 -7 5 -23 13 -37 17 -14 3 -43 15 -65 25 -22 10
-51 23 -65 29 -29 13 -184 111 -221 140 -14 11 -46 30 -70 43 -24 13 -55 31
-69 40 -14 9 -36 19 -50 23 -14 4 -32 13 -40 20 -8 7 -33 17 -55 21 -22 4 -56
14 -75 22 -30 13 -129 15 -676 16 -597 1 -643 2 -661 18 -11 10 -32 18 -46 18
-15 0 -35 8 -45 18 -9 9 -30 25 -45 35 -16 10 -46 34 -68 54 -54 49 -159 210
-159 243 0 7 -6 26 -14 43 -17 37 -34 108 -46 192 -5 34 -9 1054 -10 2325 0
2009 -2 2270 -15 2309 -33 94 -61 129 -122 157 -39 17 -49 17 -90 -1z"/>
<path d="M7860 9727 c-18 -9 -256 -13 -890 -17 l-865 -5 -60 -24 c-103 -40
-163 -71 -217 -112 -29 -21 -56 -39 -59 -39 -14 0 -162 -176 -207 -245 -67
-103 -130 -252 -171 -405 l-36 -135 -7 -1560 c-4 -858 -7 -1580 -8 -1605 0
-25 3 -258 6 -518 5 -418 4 -478 -11 -528 -16 -56 -50 -118 -89 -161 l-19 -23
211 0 212 0 6 28 c3 15 11 38 17 52 11 24 21 1435 26 3573 0 398 5 657 10 657
6 0 11 -346 13 -882 2 -486 7 -891 12 -900 13 -28 26 -21 42 20 46 118 151
255 232 303 20 12 43 29 50 37 9 12 12 164 12 681 0 428 4 679 10 703 15 52
67 117 115 142 39 21 51 21 779 23 650 2 740 4 755 17 9 9 31 28 49 42 53 42
72 91 72 181 0 81 -20 144 -53 172 -22 18 -22 51 1 52 9 1 45 0 80 -1 54 -2
69 2 103 25 140 98 137 339 -6 433 -53 34 -75 38 -115 19z"/>
<path d="M14490 9720 c-9 -6 -179 -10 -430 -10 -228 -1 -447 -5 -486 -9 -211
-25 -376 -194 -467 -481 -20 -63 -20 -95 -27 -1050 -5 -720 -10 -997 -18
-1030 -29 -107 -97 -223 -158 -267 -16 -12 -25 -26 -22 -35 5 -11 26 -14 109
-12 116 3 116 3 145 83 29 81 123 211 194 268 36 29 75 61 88 72 l22 20 0 872
c0 953 -1 942 58 1016 55 69 50 68 602 68 448 0 502 -2 564 -18 76 -21 208
-80 226 -102 7 -8 19 -15 26 -15 13 0 164 -144 214 -205 96 -116 205 -361 240
-540 7 -33 16 -78 21 -100 11 -55 11 -384 -1 -470 -17 -125 -62 -275 -118
-395 -27 -57 -34 -120 -34 -273 0 -67 3 -83 26 -117 31 -48 62 -69 110 -77 79
-13 145 47 187 168 12 35 32 85 45 110 24 48 97 270 109 329 42 222 47 257 52
451 6 217 -5 340 -48 529 -68 304 -214 594 -405 807 -48 54 -98 107 -110 118
-24 22 -218 156 -249 173 -103 54 -212 89 -335 107 -47 6 -92 15 -100 18 -8 4
-22 2 -30 -3z"/>
<path d="M9807 9223 c-61 -60 -76 -99 -82 -206 -5 -93 -4 -95 25 -136 37 -51
84 -81 127 -81 117 0 202 135 173 277 -23 110 -78 171 -162 180 -39 5 -46 2
-81 -34z"/>
<path d="M20419 9206 c-5 -6 -9 -106 -9 -233 l0 -223 295 0 295 0 0 230 0 229
-286 3 c-171 2 -289 -1 -295 -6z"/>
<path d="M9387 7266 c-21 -14 -41 -26 -45 -26 -10 0 -72 -63 -72 -73 0 -12 37
-8 48 6 7 8 42 11 120 10 60 -1 115 -3 122 -5 7 -2 17 11 21 28 7 24 17 33 45
42 21 6 40 9 44 7 4 -2 76 -5 161 -6 138 -1 154 1 157 16 4 15 -12 17 -175 16
-98 -1 -225 1 -283 4 -101 6 -107 5 -143 -19z"/>
<path d="M9240 7129 c0 -5 5 -7 10 -4 6 3 10 8 10 11 0 2 -4 4 -10 4 -5 0 -10
-5 -10 -11z"/>
<path d="M9120 6804 c-21 -11 -253 -14 -1432 -13 -993 0 -1419 -3 -1448 -11
-56 -15 -115 -70 -135 -128 -11 -28 -19 -91 -22 -159 l-6 -113 44 -20 c43 -19
69 -20 1452 -20 1287 0 1412 -1 1444 -16 29 -14 57 -16 172 -11 76 3 147 10
158 15 27 15 149 457 132 478 -16 20 -323 18 -359 -2z"/>
<path d="M9879 6763 c-6 -16 -19 -59 -29 -98 -10 -38 -33 -124 -51 -191 -18
-66 -30 -128 -26 -137 6 -15 29 -17 230 -17 123 0 227 -3 230 -6 3 -4 -11 -19
-32 -34 -109 -79 -118 -284 -17 -393 14 -15 40 -28 64 -32 36 -6 49 -2 99 28
92 56 124 137 102 257 -12 66 -38 102 -110 152 -42 29 -11 43 97 44 53 1 100
6 106 12 7 7 0 23 -23 52 -34 42 -34 42 -37 167 -4 120 -3 126 22 164 14 21
26 43 26 49 0 7 -109 10 -320 10 l-320 0 -11 -27z"/>
<path d="M13174 4829 c-35 -10 -81 -64 -100 -118 -20 -55 -17 -152 7 -215 27
-73 68 -99 149 -99 115 1 170 71 170 214 0 167 -93 257 -226 218z"/>
<path d="M3241 4819 c-69 -27 -115 -168 -90 -272 26 -108 71 -147 171 -147 66
0 102 21 135 78 25 41 28 57 28 132 0 80 -2 90 -34 142 -19 31 -45 61 -58 67
-29 13 -119 13 -152 0z"/>
<path d="M7838 4358 c-12 -18 -33 -30 -67 -38 -73 -17 -88 -35 -80 -90 4 -25
8 -96 8 -157 1 -112 1 -113 -24 -119 -14 -3 -25 -12 -25 -19 0 -16 32 -25 96
-25 40 0 55 5 71 23 44 47 53 90 52 251 -1 83 -4 162 -8 175 l-7 24 -16 -25z"/>
</g>
</svg>
