<?xml version="1.0" standalone="no"?>
<!DOCTYPE svg PUBLIC "-//W3C//DTD SVG 20010904//EN"
 "http://www.w3.org/TR/2001/REC-SVG-20010904/DTD/svg10.dtd">
<svg version="1.0" xmlns="http://www.w3.org/2000/svg"
 width="300.000000pt" height="176.000000pt" viewBox="0 0 300.000000 176.000000"
 preserveAspectRatio="xMidYMid meet">
<metadata>
Created by potrace 1.10, written by Peter Selinger 2001-2011
</metadata>
<g transform="translate(0.000000,176.000000) scale(0.100000,-0.100000)"
fill="#000000" stroke="none">
<path d="M1420 1638 l0 -58 -40 0 c-36 0 -40 -2 -40 -25 0 -24 2 -25 70 -25
l71 0 -3 82 c-3 81 -3 81 -30 82 -27 2 -28 1 -28 -56z"/>
<path d="M1500 1675 c0 -10 19 -39 42 -62 l42 -43 -42 0 c-35 0 -42 -3 -42
-20 0 -18 7 -20 80 -20 97 0 102 12 38 77 l-42 43 43 0 c37 0 42 2 39 21 -3
19 -10 21 -81 22 -70 2 -77 0 -77 -18z m70 -19 c0 -11 -19 -15 -25 -6 -3 5 1
10 9 10 9 0 16 -2 16 -4z m47 -92 c-3 -3 -12 -4 -19 -1 -8 3 -5 6 6 6 11 1 17
-2 13 -5z"/>
<path d="M1908 1533 c7 -3 16 -2 19 1 4 3 -2 6 -13 5 -11 0 -14 -3 -6 -6z"/>
<path d="M1065 1450 c-4 -6 59 -723 72 -829 l8 -64 175 -49 175 -48 175 46
c96 26 178 50 182 53 4 3 21 161 38 351 16 190 34 388 40 440 5 52 8 95 6 97
-5 6 -868 8 -871 3z m841 -109 c-4 -50 -11 -102 -16 -118 -5 -15 -11 -73 -14
-128 -2 -55 -7 -111 -10 -125 -2 -14 -7 -70 -10 -125 -3 -55 -8 -111 -11 -125
-3 -14 -6 -49 -7 -78 -1 -29 -7 -57 -12 -61 -11 -8 -72 -26 -126 -37 -34 -7
-88 -24 -126 -40 -33 -14 -130 -12 -161 4 -10 6 -38 15 -63 22 -25 6 -60 16
-78 21 -18 6 -44 13 -59 15 -48 9 -53 20 -53 114 0 47 -3 90 -7 94 -10 9 -12
24 -23 176 -6 74 -12 162 -15 195 -3 33 -8 105 -11 159 -3 54 -5 102 -6 105 0
3 0 9 1 13 0 3 184 7 407 7 l407 1 -7 -89z"/>
<path d="M1494 1375 c-5 -12 -26 -15 -98 -15 -58 0 -98 -5 -108 -12 -13 -10
-20 -44 -28 -133 -21 -213 -22 -257 -9 -282 10 -18 10 -26 1 -35 -7 -7 -12
-43 -12 -90 0 -103 11 -114 145 -149 l100 -26 6 -49 6 -49 1 50 c2 43 5 51 22
52 11 1 48 9 82 19 35 9 75 19 90 21 46 8 56 38 69 203 9 121 9 157 -1 176
-11 19 -11 26 0 39 16 20 4 233 -16 252 -9 9 -46 13 -128 13 -69 0 -116 4
-116 10 0 6 71 11 178 13 l177 2 -178 3 c-150 2 -179 0 -183 -13z m237 -37 c0
-2 6 -56 12 -120 l12 -118 -56 0 c-35 0 -59 -5 -61 -12 -3 -7 -30 -12 -71 -13
l-67 -1 0 67 0 67 34 -9 c19 -5 38 -9 43 -8 25 4 32 -5 35 -43 4 -48 28 -66
28 -20 0 16 -3 44 -6 61 l-6 31 -119 0 -119 0 0 -47 c0 -27 -3 -65 -6 -85 l-7
-38 190 0 190 0 -4 -27 c-3 -16 -10 -91 -16 -168 l-12 -140 -110 -32 -110 -33
-117 32 c-113 30 -118 33 -118 58 0 15 -3 55 -6 89 l-7 61 57 0 c53 0 56 -1
56 -24 0 -56 15 -72 78 -86 51 -10 67 -10 116 4 40 12 56 21 56 34 0 9 3 41 6
70 l7 52 -188 0 -187 0 6 63 c12 114 25 272 26 305 l0 32 220 0 c121 0 220 -1
221 -2z m-241 -203 l0 -62 -42 2 c-25 1 -42 6 -41 12 1 6 4 31 5 55 3 49 8 55
48 55 l30 0 0 -62z m-2 -282 l3 -62 -43 12 c-36 11 -43 17 -49 45 -4 18 -14
41 -24 52 -16 18 -14 18 47 17 l63 -2 3 -62z m112 58 c3 0 3 -22 0 -48 -5 -44
-8 -48 -40 -58 -19 -5 -41 -14 -47 -18 -10 -6 -13 8 -13 61 l0 70 48 -3 c26
-1 49 -3 52 -4z"/>
<path d="M1491 1294 c0 -11 3 -14 6 -6 3 7 2 16 -1 19 -3 4 -6 -2 -5 -13z"/>
<path d="M1485 730 c3 -5 8 -10 11 -10 2 0 4 5 4 10 0 6 -5 10 -11 10 -5 0 -7
-4 -4 -10z"/>
<path d="M1853 1295 c0 -27 2 -38 4 -22 2 15 2 37 0 50 -2 12 -4 0 -4 -28z"/>
<path d="M1843 1180 c0 -30 2 -43 4 -27 2 15 2 39 0 55 -2 15 -4 2 -4 -28z"/>
<path d="M1830 1078 c0 -49 5 -47 13 5 3 20 2 37 -4 37 -5 0 -9 -19 -9 -42z"/>
<path d="M1823 955 c0 -27 2 -38 4 -22 2 15 2 37 0 50 -2 12 -4 0 -4 -28z"/>
<path d="M1813 855 c0 -27 2 -38 4 -22 2 15 2 37 0 50 -2 12 -4 0 -4 -28z"/>
<path d="M1803 740 c0 -25 2 -35 4 -22 2 12 2 32 0 45 -2 12 -4 2 -4 -23z"/>
<path d="M1792 650 c0 -19 2 -27 5 -17 2 9 2 25 0 35 -3 9 -5 1 -5 -18z"/>
<path d="M1758 603 c7 -3 16 -2 19 1 4 3 -2 6 -13 5 -11 0 -14 -3 -6 -6z"/>
<path d="M1655 580 c-20 -9 -20 -9 0 -9 11 0 29 4 40 9 20 9 20 9 0 9 -11 0
-29 -4 -40 -9z"/>
<path d="M1578 553 c7 -3 16 -2 19 1 4 3 -2 6 -13 5 -11 0 -14 -3 -6 -6z"/>
<path d="M160 1248 c0 -82 0 -83 25 -83 21 0 25 5 25 28 0 22 4 27 25 27 21 0
25 -5 25 -27 0 -24 4 -28 30 -28 l30 0 0 83 0 82 -30 0 c-25 0 -30 -4 -30 -25
0 -20 -5 -25 -25 -25 -20 0 -25 5 -25 25 0 20 -5 25 -25 25 -25 0 -25 -1 -25
-82z m130 0 c0 -16 -3 -19 -11 -11 -6 6 -8 16 -5 22 11 17 16 13 16 -11z m-85
3 c3 -5 1 -12 -5 -16 -5 -3 -10 1 -10 9 0 18 6 21 15 7z"/>
<path d="M340 1305 c0 -20 5 -25 25 -25 24 0 25 -3 25 -57 0 -58 0 -58 30 -58
30 0 30 0 30 58 0 54 1 57 25 57 20 0 25 5 25 25 0 25 -1 25 -80 25 -79 0 -80
0 -80 -25z m90 -15 c0 -5 -4 -10 -10 -10 -5 0 -10 5 -10 10 0 6 5 10 10 10 6
0 10 -4 10 -10z"/>
<path d="M520 1247 l0 -83 28 2 c25 1 27 3 24 42 -4 50 2 53 24 11 l16 -32 19
29 19 29 0 -40 c0 -38 2 -40 30 -40 l30 0 0 83 0 82 -33 0 c-27 0 -36 -5 -46
-27 l-13 -28 -20 28 c-14 19 -29 27 -49 27 l-29 0 0 -83z m64 29 c15 -13 26
-26 26 -30 0 -4 -7 0 -16 9 -12 12 -19 13 -30 4 -11 -9 -14 -7 -14 15 0 32 2
32 34 2z m92 -1 c0 -14 -4 -25 -8 -25 -12 0 -20 20 -14 35 9 24 24 17 22 -10z"/>
<path d="M732 1249 l3 -81 68 -2 c67 -1 67 -1 67 27 0 25 -3 27 -40 27 l-40 0
0 55 c0 55 0 55 -30 55 l-31 0 3 -81z"/>
<path d="M2240 1248 l0 -83 65 0 c63 0 65 1 65 25 0 24 -3 25 -40 22 l-40 -4
0 40 0 40 40 -5 c38 -5 40 -4 40 21 0 25 -1 26 -65 26 l-65 0 0 -82z"/>
<path d="M2400 1314 c0 -9 16 -36 36 -60 l36 -44 -36 0 c-31 0 -36 -3 -36 -22
0 -22 3 -23 77 -22 97 1 105 16 41 81 l-43 45 38 -4 c33 -4 37 -2 37 19 0 22
-3 23 -75 23 -62 0 -75 -3 -75 -16z m60 -30 c0 -8 -4 -12 -10 -9 -5 3 -10 10
-10 16 0 5 5 9 10 9 6 0 10 -7 10 -16z m50 -69 c10 -12 10 -15 -4 -15 -9 0
-16 7 -16 15 0 8 2 15 4 15 2 0 9 -7 16 -15z"/>
<path d="M2580 1313 c0 -10 19 -37 42 -60 l42 -43 -42 0 c-37 0 -42 -3 -42
-22 0 -22 4 -23 80 -23 73 0 80 2 80 20 0 10 -19 39 -42 62 l-42 43 42 0 c35
0 42 3 42 20 0 18 -7 20 -80 20 -69 0 -80 -2 -80 -17z m70 -17 c0 -11 -19 -15
-25 -6 -3 5 1 10 9 10 9 0 16 -2 16 -4z m45 -86 c3 -5 -1 -10 -10 -10 -9 0
-13 5 -10 10 3 6 8 10 10 10 2 0 7 -4 10 -10z"/>
<path d="M86 958 c7 -73 24 -272 39 -443 15 -171 30 -313 34 -316 3 -3 84 -27
179 -53 l173 -47 172 47 c95 26 175 50 179 53 4 4 23 182 42 396 20 215 38
414 41 443 l5 52 -438 0 -438 0 12 -132z m832 93 c1 -15 -14 -204 -23 -296
-10 -94 -18 -178 -31 -335 -6 -78 -10 -107 -14 -120 -1 -3 -1 -21 0 -42 l1
-36 -70 -21 c-39 -12 -103 -31 -143 -42 -109 -33 -130 -33 -236 -4 -53 15
-121 34 -149 42 -29 8 -59 20 -66 27 -8 9 -18 69 -26 162 -7 82 -15 169 -17
194 -32 358 -38 439 -35 477 1 8 106 11 404 11 363 -1 404 -3 405 -17z"/>
<path d="M518 1023 c7 -3 16 -2 19 1 4 3 -2 6 -13 5 -11 0 -14 -3 -6 -6z"/>
<path d="M568 1023 c7 -3 16 -2 19 1 4 3 -2 6 -13 5 -11 0 -14 -3 -6 -6z"/>
<path d="M663 1023 c37 -2 97 -2 135 0 37 2 6 3 -68 3 -74 0 -105 -1 -67 -3z"/>
<path d="M502 963 l-2 -33 -135 0 c-131 0 -136 -1 -144 -22 -5 -13 -7 -25 -6
-28 2 -3 8 -70 15 -150 9 -116 15 -149 30 -165 16 -18 16 -22 4 -33 -22 -21
-9 -171 16 -193 11 -9 64 -29 119 -44 l100 -27 4 -47 3 -46 2 45 2 45 63 18
c98 27 101 28 127 33 55 11 63 33 75 219 4 55 8 110 10 122 7 43 -22 53 -153
55 l-122 1 0 33 0 33 131 -2 c150 -2 154 0 163 77 7 71 -1 75 -161 76 l-132 0
-4 33 -4 32 -1 -32z m284 -69 c-3 -9 -6 -33 -6 -55 l0 -39 -210 0 -210 0 0
-24 c0 -13 3 -38 6 -55 l7 -31 199 0 c185 0 199 -1 194 -17 -2 -10 -10 -87
-17 -170 -10 -124 -15 -153 -28 -157 -9 -3 -60 -17 -113 -31 l-97 -26 -102 28
c-56 15 -108 33 -115 41 -8 8 -14 34 -14 61 0 27 -3 62 -6 78 l-6 29 54 -1
c58 0 66 -8 67 -60 1 -29 5 -31 62 -46 54 -14 66 -15 117 -1 31 9 59 17 61 19
2 1 7 34 10 73 l7 70 -192 0 -191 0 -7 98 c-3 53 -9 127 -12 165 l-7 67 278 0
c249 0 277 -2 271 -16z m-286 -154 c0 -30 -1 -30 -55 -30 -54 0 -55 0 -55 30
0 30 1 30 55 30 54 0 55 0 55 -30z m115 -233 c-9 -53 -9 -53 -42 -60 -16 -3
-36 -9 -45 -12 -16 -6 -18 0 -18 56 l0 64 56 -3 55 -4 -6 -41z m-115 -16 l0
-59 -42 13 c-39 11 -44 16 -49 50 -3 20 -12 41 -20 46 -9 6 9 9 49 9 l62 0 0
-59z"/>
<path d="M502 350 c0 -19 2 -27 5 -17 2 9 2 25 0 35 -3 9 -5 1 -5 -18z"/>
<path d="M863 905 c0 -22 2 -30 4 -17 2 12 2 30 0 40 -3 9 -5 -1 -4 -23z"/>
<path d="M852 805 c0 -16 2 -22 5 -12 2 9 2 23 0 30 -3 6 -5 -1 -5 -18z"/>
<path d="M843 680 c0 -25 2 -35 4 -22 2 12 2 32 0 45 -2 12 -4 2 -4 -23z"/>
<path d="M832 570 c0 -19 2 -27 5 -17 2 9 2 25 0 35 -3 9 -5 1 -5 -18z"/>
<path d="M823 460 c0 -25 2 -35 4 -22 2 12 2 32 0 45 -2 12 -4 2 -4 -23z"/>
<path d="M813 345 c0 -27 2 -38 4 -22 2 15 2 37 0 50 -2 12 -4 0 -4 -28z"/>
<path d="M778 243 c7 -3 16 -2 19 1 4 3 -2 6 -13 5 -11 0 -14 -3 -6 -6z"/>
<path d="M668 213 c7 -3 16 -2 19 1 4 3 -2 6 -13 5 -11 0 -14 -3 -6 -6z"/>
<path d="M598 193 c7 -3 16 -2 19 1 4 3 -2 6 -13 5 -11 0 -14 -3 -6 -6z"/>
<path d="M558 183 c7 -3 16 -2 19 1 4 3 -2 6 -13 5 -11 0 -14 -3 -6 -6z"/>
<path d="M2055 1043 c3 -27 21 -226 40 -443 20 -217 39 -397 43 -401 4 -3 85
-27 179 -53 l172 -47 128 36 c71 20 151 42 178 50 l51 14 28 323 c16 178 34
378 40 446 l12 122 -438 0 -439 0 6 -47z m840 -31 c-19 -181 -25 -234 -30
-302 -14 -185 -36 -438 -41 -467 -4 -28 -16 -38 -36 -32 -2 0 -16 -5 -33 -11
-16 -7 -37 -13 -45 -16 -59 -14 -132 -35 -170 -47 -39 -12 -53 -12 -100 -1
-30 8 -64 18 -75 23 -11 5 -64 20 -117 32 l-98 23 -1 40 c-1 23 -3 50 -4 61
-2 11 -8 78 -14 150 -6 72 -13 141 -16 155 -2 14 -7 70 -10 125 -3 55 -8 116
-10 135 -3 19 -7 70 -10 113 l-6 77 411 0 411 -1 -6 -57z"/>
<path d="M2479 1024 c-5 -6 -8 -20 -8 -30 5 -55 9 -54 -131 -54 -126 0 -131
-1 -139 -23 -11 -28 -6 -88 8 -116 11 -20 20 -21 136 -21 l125 0 0 -30 c0 -30
-1 -30 -53 -30 -29 0 -58 -5 -65 -12 -17 -17 -15 -100 4 -126 12 -18 25 -22
65 -22 l49 0 0 -61 c0 -66 5 -62 -60 -43 -17 4 -25 26 -22 55 1 4 -7 14 -17
23 -14 13 -33 16 -77 14 l-59 -3 -3 -84 c-4 -117 4 -124 196 -171 40 -10 42
-13 43 -48 1 -20 1 -43 0 -50 -1 -6 3 -12 9 -12 5 0 10 23 10 53 l0 52 37 3
c20 1 54 8 77 16 23 8 60 19 83 25 24 7 44 19 47 29 3 9 10 80 16 157 6 77 12
158 15 180 2 22 7 81 11 132 8 116 9 116 -162 111 l-124 -3 0 43 0 42 180 0
180 0 -5 -22 c-2 -13 -19 -185 -36 -383 -17 -198 -32 -360 -32 -361 -1 -1 -62
-17 -136 -37 -74 -20 -139 -41 -144 -46 -10 -10 63 6 140 30 18 6 40 12 50 14
62 12 98 32 105 55 3 14 12 86 18 160 7 74 13 151 15 170 11 112 16 170 30
362 3 38 0 60 -8 65 -20 13 -357 10 -368 -3z m281 -116 c1 -46 -43 -517 -49
-533 -6 -15 -34 -27 -114 -49 l-106 -29 -105 28 c-57 15 -108 30 -114 34 -5 3
-12 43 -16 89 l-7 82 55 0 c51 0 56 -2 56 -22 0 -53 10 -65 69 -81 52 -15 62
-15 118 0 l61 17 6 50 c12 99 22 91 -118 88 -139 -3 -136 -5 -136 81 l0 37
134 -2 135 -3 5 29 c3 16 6 41 6 57 l0 29 -207 -1 c-114 0 -208 3 -209 8 -1 4
-4 29 -7 56 l-5 47 274 0 c212 0 274 -3 274 -12z m-191 -128 c46 0 48 -1 45
-26 -1 -14 -4 -27 -6 -29 -2 -1 -29 -5 -60 -7 l-58 -5 0 40 c0 32 3 38 16 33
9 -3 37 -6 63 -6z m18 -225 c7 -2 11 -15 9 -27 -3 -13 -5 -33 -5 -45 -1 -16
-12 -25 -48 -37 -26 -9 -48 -16 -50 -16 -2 0 -3 31 -3 69 l0 70 43 -5 c23 -2
48 -7 54 -9z"/>
</g>
</svg>
